<svg xmlns="http://www.w3.org/2000/svg" viewBox="0 0 899.827400955384 391.1983532699725" width="899.827400955384" height="391.1983532699725"><rect x="0" y="0" width="899.827400955384" height="391.1983532699725" fill="white"></rect><g transform="translate(25 25)"><g><g><line x1="0" y1="25" x2="680" y2="25" stroke="black" stroke-width="2"></line><polyline points="670,19.226497308103742 680,25 670,30.773502691896258" fill="none" stroke="black" stroke-width="2" stroke-linecap="square"></polyline></g><g transform="translate(629 0)"><line x1="0" y1="0" x2="0" y2="50" stroke="black" stroke-width="2"></line></g><g transform="translate(550 0)"><ellipse cx="20" cy="25" rx="19" ry="19" fill="hsl(321, 60%, 80%)" stroke="black" stroke-width="2"></ellipse><text x="0" y="0" fill="black" font-family="Arial, Helvetica, sans-serif" font-size="18px" font-weight="normal" font-style="normal" dominant-baseline="middle" text-anchor="middle" transform="translate(20 25)">a</text></g><g transform="translate(490 0)"><ellipse cx="20" cy="25" rx="19" ry="19" fill="hsl(321, 60%, 80%)" stroke="black" stroke-width="2"></ellipse><text x="0" y="0" fill="black" font-family="Arial, Helvetica, sans-serif" font-size="18px" font-weight="normal" font-style="normal" dominant-baseline="middle" text-anchor="middle" transform="translate(20 25)">a</text></g><g transform="translate(430 0)"><ellipse cx="20" cy="25" rx="19" ry="19" fill="hsl(32, 60%, 80%)" stroke="black" stroke-width="2"></ellipse><text x="0" y="0" fill="black" font-family="Arial, Helvetica, sans-serif" font-size="18px" font-weight="normal" font-style="normal" dominant-baseline="middle" text-anchor="middle" transform="translate(20 25)">c</text></g><g transform="translate(370 0)"><ellipse cx="20" cy="25" rx="19" ry="19" fill="hsl(32, 60%, 80%)" stroke="black" stroke-width="2"></ellipse><text x="0" y="0" fill="black" font-family="Arial, Helvetica, sans-serif" font-size="18px" font-weight="normal" font-style="normal" dominant-baseline="middle" text-anchor="middle" transform="translate(20 25)">c</text></g><g transform="translate(310 0)"><ellipse cx="20" cy="25" rx="19" ry="19" fill="hsl(44, 60%, 80%)" stroke="black" stroke-width="2"></ellipse><text x="0" y="0" fill="black" font-family="Arial, Helvetica, sans-serif" font-size="18px" font-weight="normal" font-style="normal" dominant-baseline="middle" text-anchor="middle" transform="translate(20 25)">b</text></g><g transform="translate(250 0)"><ellipse cx="20" cy="25" rx="19" ry="19" fill="hsl(44, 60%, 80%)" stroke="black" stroke-width="2"></ellipse><text x="0" y="0" fill="black" font-family="Arial, Helvetica, sans-serif" font-size="18px" font-weight="normal" font-style="normal" dominant-baseline="middle" text-anchor="middle" transform="translate(20 25)">b</text></g><g transform="translate(190 0)"><ellipse cx="20" cy="25" rx="19" ry="19" fill="hsl(321, 60%, 80%)" stroke="black" stroke-width="2"></ellipse><text x="0" y="0" fill="black" font-family="Arial, Helvetica, sans-serif" font-size="18px" font-weight="normal" font-style="normal" dominant-baseline="middle" text-anchor="middle" transform="translate(20 25)">a</text></g><g transform="translate(130 0)"><ellipse cx="20" cy="25" rx="19" ry="19" fill="hsl(321, 60%, 80%)" stroke="black" stroke-width="2"></ellipse><text x="0" y="0" fill="black" font-family="Arial, Helvetica, sans-serif" font-size="18px" font-weight="normal" font-style="normal" dominant-baseline="middle" text-anchor="middle" transform="translate(20 25)">a</text></g><g transform="translate(70 0)"><ellipse cx="20" cy="25" rx="19" ry="19" fill="hsl(321, 60%, 80%)" stroke="black" stroke-width="2"></ellipse><text x="0" y="0" fill="black" font-family="Arial, Helvetica, sans-serif" font-size="18px" font-weight="normal" font-style="normal" dominant-baseline="middle" text-anchor="middle" transform="translate(20 25)">a</text></g></g><g transform="translate(0 70)"><rect x="0" y="10" width="849.827400955384" height="48" fill="white" stroke="black" stroke-width="2" rx="0"></rect><text x="424.913700477692" y="35" fill="black" font-family="Arial, Helvetica, sans-serif" font-size="24px" font-weight="normal" font-style="normal" dominant-baseline="middle" text-anchor="middle" width="849.827400955384">AdjacentGroupBy</text></g><g transform="translate(0 160)"><g><line x1="0" y1="25" x2="770" y2="25" stroke="black" stroke-width="2"></line><polyline points="760,19.226497308103742 770,25 760,30.773502691896258" fill="none" stroke="black" stroke-width="2" stroke-linecap="square"></polyline></g><g transform="translate(719 0)"><line x1="0" y1="0" x2="0" y2="50" stroke="black" stroke-width="2"></line></g><g transform="rotate(18 510 25) translate(510 0)"><g><line x1="0" y1="25" x2="365.43866727148014" y2="25" stroke="black" stroke-width="2"></line><polyline points="355.43866727148014,19.226497308103742 365.43866727148014,25 355.43866727148014,30.773502691896258" fill="none" stroke="black" stroke-width="2" stroke-linecap="square"></polyline></g><g transform="translate(314.43866727148014 0)"><line x1="0" y1="0" x2="0" y2="50" stroke="black" stroke-width="2"></line></g><g transform="translate(169.2632003628881 0)"><ellipse cx="20" cy="25" rx="19" ry="19" fill="hsl(321, 60%, 80%)" stroke="black" stroke-width="2"></ellipse><text x="0" y="0" fill="black" font-family="Arial, Helvetica, sans-serif" font-size="18px" font-weight="normal" font-style="normal" dominant-baseline="middle" text-anchor="middle" transform="translate(20 25)">a</text></g><g transform="translate(106.17546690859206 0)"><ellipse cx="20" cy="25" rx="19" ry="19" fill="hsl(321, 60%, 80%)" stroke="black" stroke-width="2"></ellipse><text x="0" y="0" fill="black" font-family="Arial, Helvetica, sans-serif" font-size="18px" font-weight="normal" font-style="normal" dominant-baseline="middle" text-anchor="middle" transform="translate(20 25)">a</text></g></g><g transform="rotate(18 360 25) translate(360 0)"><g><line x1="0" y1="25" x2="365.43866727148014" y2="25" stroke="black" stroke-width="2"></line><polyline points="355.43866727148014,19.226497308103742 365.43866727148014,25 355.43866727148014,30.773502691896258" fill="none" stroke="black" stroke-width="2" stroke-linecap="square"></polyline></g><g transform="translate(314.43866727148014 0)"><line x1="0" y1="0" x2="0" y2="50" stroke="black" stroke-width="2"></line></g><g transform="translate(169.2632003628881 0)"><ellipse cx="20" cy="25" rx="19" ry="19" fill="hsl(32, 60%, 80%)" stroke="black" stroke-width="2"></ellipse><text x="0" y="0" fill="black" font-family="Arial, Helvetica, sans-serif" font-size="18px" font-weight="normal" font-style="normal" dominant-baseline="middle" text-anchor="middle" transform="translate(20 25)">c</text></g><g transform="translate(106.17546690859206 0)"><ellipse cx="20" cy="25" rx="19" ry="19" fill="hsl(32, 60%, 80%)" stroke="black" stroke-width="2"></ellipse><text x="0" y="0" fill="black" font-family="Arial, Helvetica, sans-serif" font-size="18px" font-weight="normal" font-style="normal" dominant-baseline="middle" text-anchor="middle" transform="translate(20 25)">c</text></g></g><g transform="rotate(18 210 25) translate(210 0)"><g><line x1="0" y1="25" x2="365.43866727148014" y2="25" stroke="black" stroke-width="2"></line><polyline points="355.43866727148014,19.226497308103742 365.43866727148014,25 355.43866727148014,30.773502691896258" fill="none" stroke="black" stroke-width="2" stroke-linecap="square"></polyline></g><g transform="translate(314.43866727148014 0)"><line x1="0" y1="0" x2="0" y2="50" stroke="black" stroke-width="2"></line></g><g transform="translate(169.2632003628881 0)"><ellipse cx="20" cy="25" rx="19" ry="19" fill="hsl(44, 60%, 80%)" stroke="black" stroke-width="2"></ellipse><text x="0" y="0" fill="black" font-family="Arial, Helvetica, sans-serif" font-size="18px" font-weight="normal" font-style="normal" dominant-baseline="middle" text-anchor="middle" transform="translate(20 25)">b</text></g><g transform="translate(106.17546690859206 0)"><ellipse cx="20" cy="25" rx="19" ry="19" fill="hsl(44, 60%, 80%)" stroke="black" stroke-width="2"></ellipse><text x="0" y="0" fill="black" font-family="Arial, Helvetica, sans-serif" font-size="18px" font-weight="normal" font-style="normal" dominant-baseline="middle" text-anchor="middle" transform="translate(20 25)">b</text></g></g><g transform="rotate(18 60 25) translate(60 0)"><g><line x1="0" y1="25" x2="428.5264007257762" y2="25" stroke="black" stroke-width="2"></line><polyline points="418.5264007257762,19.226497308103742 428.5264007257762,25 418.5264007257762,30.773502691896258" fill="none" stroke="black" stroke-width="2" stroke-linecap="square"></polyline></g><g transform="translate(377.5264007257762 0)"><line x1="0" y1="0" x2="0" y2="50" stroke="black" stroke-width="2"></line></g><g transform="translate(232.3509338171841 0)"><ellipse cx="20" cy="25" rx="19" ry="19" fill="hsl(321, 60%, 80%)" stroke="black" stroke-width="2"></ellipse><text x="0" y="0" fill="black" font-family="Arial, Helvetica, sans-serif" font-size="18px" font-weight="normal" font-style="normal" dominant-baseline="middle" text-anchor="middle" transform="translate(20 25)">a</text></g><g transform="translate(169.2632003628881 0)"><ellipse cx="20" cy="25" rx="19" ry="19" fill="hsl(321, 60%, 80%)" stroke="black" stroke-width="2"></ellipse><text x="0" y="0" fill="black" font-family="Arial, Helvetica, sans-serif" font-size="18px" font-weight="normal" font-style="normal" dominant-baseline="middle" text-anchor="middle" transform="translate(20 25)">a</text></g><g transform="translate(106.17546690859206 0)"><ellipse cx="20" cy="25" rx="19" ry="19" fill="hsl(321, 60%, 80%)" stroke="black" stroke-width="2"></ellipse><text x="0" y="0" fill="black" font-family="Arial, Helvetica, sans-serif" font-size="18px" font-weight="normal" font-style="normal" dominant-baseline="middle" text-anchor="middle" transform="translate(20 25)">a</text></g></g></g></g></svg>