<svg xmlns="http://www.w3.org/2000/svg" viewBox="0 0 1030 260" width="1030" height="260"><rect x="0" y="0" width="1030" height="260" fill="white"></rect><g transform="translate(25 25)"><g><g><line x1="0" y1="25" x2="980" y2="25" stroke="black" stroke-width="2"></line><polyline points="970,19.226497308103742 980,25 970,30.773502691896258" fill="none" stroke="black" stroke-width="2" stroke-linecap="square"></polyline></g><g transform="translate(929 0)"><line x1="0" y1="0" x2="0" y2="50" stroke="black" stroke-width="2"></line></g><g transform="translate(790 0)"><ellipse cx="20" cy="25" rx="19" ry="19" fill="hsl(306, 60%, 80%)" stroke="black" stroke-width="2"></ellipse><text x="0" y="0" fill="black" font-family="Arial, Helvetica, sans-serif" font-size="18px" font-weight="normal" font-style="normal" dominant-baseline="middle" text-anchor="middle" transform="translate(20 25)">6</text></g><g transform="translate(610 0)"><ellipse cx="20" cy="25" rx="19" ry="19" fill="hsl(117, 60%, 80%)" stroke="black" stroke-width="2"></ellipse><text x="0" y="0" fill="black" font-family="Arial, Helvetica, sans-serif" font-size="18px" font-weight="normal" font-style="normal" dominant-baseline="middle" text-anchor="middle" transform="translate(20 25)">4</text></g><g transform="translate(430 0)"><ellipse cx="20" cy="25" rx="19" ry="19" fill="hsl(147, 60%, 80%)" stroke="black" stroke-width="2"></ellipse><text x="0" y="0" fill="black" font-family="Arial, Helvetica, sans-serif" font-size="18px" font-weight="normal" font-style="normal" dominant-baseline="middle" text-anchor="middle" transform="translate(20 25)">3</text></g><g transform="translate(250 0)"><ellipse cx="20" cy="25" rx="19" ry="19" fill="hsl(230, 60%, 80%)" stroke="black" stroke-width="2"></ellipse><text x="0" y="0" fill="black" font-family="Arial, Helvetica, sans-serif" font-size="18px" font-weight="normal" font-style="normal" dominant-baseline="middle" text-anchor="middle" transform="translate(20 25)">7</text></g><g transform="translate(70 0)"><ellipse cx="20" cy="25" rx="19" ry="19" fill="hsl(175, 60%, 80%)" stroke="black" stroke-width="2"></ellipse><text x="0" y="0" fill="black" font-family="Arial, Helvetica, sans-serif" font-size="18px" font-weight="normal" font-style="normal" dominant-baseline="middle" text-anchor="middle" transform="translate(20 25)">9</text></g></g><g transform="translate(0 70)"><rect x="0" y="10" width="980" height="48" fill="white" stroke="black" stroke-width="2" rx="0"></rect><text x="490" y="35" fill="black" font-family="Arial, Helvetica, sans-serif" font-size="24px" font-weight="normal" font-style="normal" dominant-baseline="middle" text-anchor="middle" width="980">Intersperse(U)</text></g><g transform="translate(0 160)"><g><line x1="0" y1="25" x2="980" y2="25" stroke="black" stroke-width="2"></line><polyline points="970,19.226497308103742 980,25 970,30.773502691896258" fill="none" stroke="black" stroke-width="2" stroke-linecap="square"></polyline></g><g transform="translate(929 0)"><line x1="0" y1="0" x2="0" y2="50" stroke="black" stroke-width="2"></line></g><g transform="translate(790 0)"><ellipse cx="20" cy="25" rx="19" ry="19" fill="hsl(306, 60%, 80%)" stroke="black" stroke-width="2"></ellipse><text x="0" y="0" fill="black" font-family="Arial, Helvetica, sans-serif" font-size="18px" font-weight="normal" font-style="normal" dominant-baseline="middle" text-anchor="middle" transform="translate(20 25)">6</text></g><g transform="translate(700 0)"><ellipse cx="20" cy="25" rx="19" ry="19" fill="hsl(271, 60%, 80%)" stroke="black" stroke-width="2"></ellipse><text x="0" y="0" fill="black" font-family="Arial, Helvetica, sans-serif" font-size="18px" font-weight="normal" font-style="normal" dominant-baseline="middle" text-anchor="middle" transform="translate(20 25)">U</text></g><g transform="translate(610 0)"><ellipse cx="20" cy="25" rx="19" ry="19" fill="hsl(117, 60%, 80%)" stroke="black" stroke-width="2"></ellipse><text x="0" y="0" fill="black" font-family="Arial, Helvetica, sans-serif" font-size="18px" font-weight="normal" font-style="normal" dominant-baseline="middle" text-anchor="middle" transform="translate(20 25)">4</text></g><g transform="translate(520 0)"><ellipse cx="20" cy="25" rx="19" ry="19" fill="hsl(271, 60%, 80%)" stroke="black" stroke-width="2"></ellipse><text x="0" y="0" fill="black" font-family="Arial, Helvetica, sans-serif" font-size="18px" font-weight="normal" font-style="normal" dominant-baseline="middle" text-anchor="middle" transform="translate(20 25)">U</text></g><g transform="translate(430 0)"><ellipse cx="20" cy="25" rx="19" ry="19" fill="hsl(147, 60%, 80%)" stroke="black" stroke-width="2"></ellipse><text x="0" y="0" fill="black" font-family="Arial, Helvetica, sans-serif" font-size="18px" font-weight="normal" font-style="normal" dominant-baseline="middle" text-anchor="middle" transform="translate(20 25)">3</text></g><g transform="translate(340 0)"><ellipse cx="20" cy="25" rx="19" ry="19" fill="hsl(271, 60%, 80%)" stroke="black" stroke-width="2"></ellipse><text x="0" y="0" fill="black" font-family="Arial, Helvetica, sans-serif" font-size="18px" font-weight="normal" font-style="normal" dominant-baseline="middle" text-anchor="middle" transform="translate(20 25)">U</text></g><g transform="translate(250 0)"><ellipse cx="20" cy="25" rx="19" ry="19" fill="hsl(230, 60%, 80%)" stroke="black" stroke-width="2"></ellipse><text x="0" y="0" fill="black" font-family="Arial, Helvetica, sans-serif" font-size="18px" font-weight="normal" font-style="normal" dominant-baseline="middle" text-anchor="middle" transform="translate(20 25)">7</text></g><g transform="translate(160 0)"><ellipse cx="20" cy="25" rx="19" ry="19" fill="hsl(271, 60%, 80%)" stroke="black" stroke-width="2"></ellipse><text x="0" y="0" fill="black" font-family="Arial, Helvetica, sans-serif" font-size="18px" font-weight="normal" font-style="normal" dominant-baseline="middle" text-anchor="middle" transform="translate(20 25)">U</text></g><g transform="translate(70 0)"><ellipse cx="20" cy="25" rx="19" ry="19" fill="hsl(175, 60%, 80%)" stroke="black" stroke-width="2"></ellipse><text x="0" y="0" fill="black" font-family="Arial, Helvetica, sans-serif" font-size="18px" font-weight="normal" font-style="normal" dominant-baseline="middle" text-anchor="middle" transform="translate(20 25)">9</text></g></g></g></svg>