<svg xmlns="http://www.w3.org/2000/svg" viewBox="0 0 1330 517.9170348008058" width="1330" height="517.9170348008058"><rect x="0" y="0" width="1330" height="517.9170348008058" fill="white"></rect><g transform="translate(25 25)"><g><g><line x1="0" y1="25" x2="1280" y2="25" stroke="black" stroke-width="2"></line><polyline points="1270,19.226497308103742 1280,25 1270,30.773502691896258" fill="none" stroke="black" stroke-width="2" stroke-linecap="square"></polyline></g><g transform="translate(1229 0)"><line x1="0" y1="0" x2="0" y2="50" stroke="black" stroke-width="2"></line></g><g transform="translate(1000 0)"><ellipse cx="20" cy="25" rx="19" ry="19" fill="hsl(230, 60%, 80%)" stroke="black" stroke-width="2"></ellipse><text x="0" y="0" fill="black" font-family="Arial, Helvetica, sans-serif" font-size="18px" font-weight="normal" font-style="normal" dominant-baseline="middle" text-anchor="middle" transform="translate(20 25)">7</text></g><g transform="translate(880 0)"><ellipse cx="20" cy="25" rx="19" ry="19" fill="hsl(79, 60%, 80%)" stroke="black" stroke-width="2"></ellipse><text x="0" y="0" fill="black" font-family="Arial, Helvetica, sans-serif" font-size="18px" font-weight="normal" font-style="normal" dominant-baseline="middle" text-anchor="middle" transform="translate(20 25)">d</text></g><g transform="translate(760 0)"><ellipse cx="20" cy="25" rx="19" ry="19" fill="hsl(32, 60%, 80%)" stroke="black" stroke-width="2"></ellipse><text x="0" y="0" fill="black" font-family="Arial, Helvetica, sans-serif" font-size="18px" font-weight="normal" font-style="normal" dominant-baseline="middle" text-anchor="middle" transform="translate(20 25)">c</text></g><g transform="translate(640 0)"><ellipse cx="20" cy="25" rx="19" ry="19" fill="hsl(117, 60%, 80%)" stroke="black" stroke-width="2"></ellipse><text x="0" y="0" fill="black" font-family="Arial, Helvetica, sans-serif" font-size="18px" font-weight="normal" font-style="normal" dominant-baseline="middle" text-anchor="middle" transform="translate(20 25)">4</text></g><g transform="translate(520 0)"><ellipse cx="20" cy="25" rx="19" ry="19" fill="hsl(147, 60%, 80%)" stroke="black" stroke-width="2"></ellipse><text x="0" y="0" fill="black" font-family="Arial, Helvetica, sans-serif" font-size="18px" font-weight="normal" font-style="normal" dominant-baseline="middle" text-anchor="middle" transform="translate(20 25)">3</text></g><g transform="translate(400 0)"><ellipse cx="20" cy="25" rx="19" ry="19" fill="hsl(44, 60%, 80%)" stroke="black" stroke-width="2"></ellipse><text x="0" y="0" fill="black" font-family="Arial, Helvetica, sans-serif" font-size="18px" font-weight="normal" font-style="normal" dominant-baseline="middle" text-anchor="middle" transform="translate(20 25)">b</text></g><g transform="translate(280 0)"><ellipse cx="20" cy="25" rx="19" ry="19" fill="hsl(321, 60%, 80%)" stroke="black" stroke-width="2"></ellipse><text x="0" y="0" fill="black" font-family="Arial, Helvetica, sans-serif" font-size="18px" font-weight="normal" font-style="normal" dominant-baseline="middle" text-anchor="middle" transform="translate(20 25)">a</text></g><g transform="translate(160 0)"><ellipse cx="20" cy="25" rx="19" ry="19" fill="hsl(35, 60%, 80%)" stroke="black" stroke-width="2"></ellipse><text x="0" y="0" fill="black" font-family="Arial, Helvetica, sans-serif" font-size="18px" font-weight="normal" font-style="normal" dominant-baseline="middle" text-anchor="middle" transform="translate(20 25)">1</text></g></g><g transform="translate(0 70)"><rect x="0" y="10" width="1280" height="48" fill="white" stroke="black" stroke-width="2" rx="0"></rect><text x="640" y="35" fill="black" font-family="Arial, Helvetica, sans-serif" font-size="24px" font-weight="normal" font-style="normal" dominant-baseline="middle" text-anchor="middle" width="1280">Partition(IsDigit)</text></g><g transform="translate(0 160)"><g><line x1="0" y1="25" x2="650" y2="25" stroke="black" stroke-width="2"></line><polyline points="640,19.226497308103742 650,25 640,30.773502691896258" fill="none" stroke="black" stroke-width="2" stroke-linecap="square"></polyline></g><g transform="translate(599 0)"><line x1="0" y1="0" x2="0" y2="50" stroke="black" stroke-width="2"></line></g><g transform="rotate(18 390 25) translate(390 0)"><g><line x1="0" y1="25" x2="838.5966681787004" y2="25" stroke="black" stroke-width="2"></line><polyline points="828.5966681787004,19.226497308103742 838.5966681787004,25 828.5966681787004,30.773502691896258" fill="none" stroke="black" stroke-width="2" stroke-linecap="square"></polyline></g><g transform="translate(787.5966681787004 0)"><line x1="0" y1="0" x2="0" y2="50" stroke="black" stroke-width="2"></line></g><g transform="translate(547.7896010886643 0)"><ellipse cx="20" cy="25" rx="19" ry="19" fill="hsl(79, 60%, 80%)" stroke="black" stroke-width="2"></ellipse><text x="0" y="0" fill="black" font-family="Arial, Helvetica, sans-serif" font-size="18px" font-weight="normal" font-style="normal" dominant-baseline="middle" text-anchor="middle" transform="translate(20 25)">d</text></g><g transform="translate(421.61413418007226 0)"><ellipse cx="20" cy="25" rx="19" ry="19" fill="hsl(32, 60%, 80%)" stroke="black" stroke-width="2"></ellipse><text x="0" y="0" fill="black" font-family="Arial, Helvetica, sans-serif" font-size="18px" font-weight="normal" font-style="normal" dominant-baseline="middle" text-anchor="middle" transform="translate(20 25)">c</text></g><g transform="translate(295.43866727148014 0)"><ellipse cx="20" cy="25" rx="19" ry="19" fill="hsl(44, 60%, 80%)" stroke="black" stroke-width="2"></ellipse><text x="0" y="0" fill="black" font-family="Arial, Helvetica, sans-serif" font-size="18px" font-weight="normal" font-style="normal" dominant-baseline="middle" text-anchor="middle" transform="translate(20 25)">b</text></g><g transform="translate(169.2632003628881 0)"><ellipse cx="20" cy="25" rx="19" ry="19" fill="hsl(321, 60%, 80%)" stroke="black" stroke-width="2"></ellipse><text x="0" y="0" fill="black" font-family="Arial, Helvetica, sans-serif" font-size="18px" font-weight="normal" font-style="normal" dominant-baseline="middle" text-anchor="middle" transform="translate(20 25)">a</text></g></g><g transform="rotate(18 180 25) translate(180 0)"><g><line x1="0" y1="25" x2="838.5966681787004" y2="25" stroke="black" stroke-width="2"></line><polyline points="828.5966681787004,19.226497308103742 838.5966681787004,25 828.5966681787004,30.773502691896258" fill="none" stroke="black" stroke-width="2" stroke-linecap="square"></polyline></g><g transform="translate(787.5966681787004 0)"><line x1="0" y1="0" x2="0" y2="50" stroke="black" stroke-width="2"></line></g><g transform="translate(547.7896010886643 0)"><ellipse cx="20" cy="25" rx="19" ry="19" fill="hsl(230, 60%, 80%)" stroke="black" stroke-width="2"></ellipse><text x="0" y="0" fill="black" font-family="Arial, Helvetica, sans-serif" font-size="18px" font-weight="normal" font-style="normal" dominant-baseline="middle" text-anchor="middle" transform="translate(20 25)">7</text></g><g transform="translate(421.61413418007226 0)"><ellipse cx="20" cy="25" rx="19" ry="19" fill="hsl(117, 60%, 80%)" stroke="black" stroke-width="2"></ellipse><text x="0" y="0" fill="black" font-family="Arial, Helvetica, sans-serif" font-size="18px" font-weight="normal" font-style="normal" dominant-baseline="middle" text-anchor="middle" transform="translate(20 25)">4</text></g><g transform="translate(295.43866727148014 0)"><ellipse cx="20" cy="25" rx="19" ry="19" fill="hsl(147, 60%, 80%)" stroke="black" stroke-width="2"></ellipse><text x="0" y="0" fill="black" font-family="Arial, Helvetica, sans-serif" font-size="18px" font-weight="normal" font-style="normal" dominant-baseline="middle" text-anchor="middle" transform="translate(20 25)">3</text></g><g transform="translate(169.2632003628881 0)"><ellipse cx="20" cy="25" rx="19" ry="19" fill="hsl(35, 60%, 80%)" stroke="black" stroke-width="2"></ellipse><text x="0" y="0" fill="black" font-family="Arial, Helvetica, sans-serif" font-size="18px" font-weight="normal" font-style="normal" dominant-baseline="middle" text-anchor="middle" transform="translate(20 25)">1</text></g></g></g></g></svg>