<svg xmlns="http://www.w3.org/2000/svg" viewBox="0 0 1460.801270189222 541.4582562299424" width="1460.801270189222" height="541.4582562299424"><rect x="0" y="0" width="1460.801270189222" height="541.4582562299424" fill="white"></rect><g transform="translate(25 25)"><g><g><line x1="0" y1="25" x2="620" y2="25" stroke="black" stroke-width="2"></line><polyline points="610,19.226497308103742 620,25 610,30.773502691896258" fill="none" stroke="black" stroke-width="2" stroke-linecap="square"></polyline></g><g transform="translate(569 0)"><line x1="0" y1="0" x2="0" y2="50" stroke="black" stroke-width="2"></line></g><g transform="translate(430 0)"><ellipse cx="20" cy="25" rx="19" ry="19" fill="hsl(152, 60%, 80%)" stroke="black" stroke-width="2"></ellipse><text x="0" y="0" fill="black" font-family="Arial, Helvetica, sans-serif" font-size="18px" font-weight="normal" font-style="normal" dominant-baseline="middle" text-anchor="middle" transform="translate(20 25)">C</text></g><g transform="translate(250 0)"><ellipse cx="20" cy="25" rx="19" ry="19" fill="hsl(44, 60%, 80%)" stroke="black" stroke-width="2"></ellipse><text x="0" y="0" fill="black" font-family="Arial, Helvetica, sans-serif" font-size="18px" font-weight="normal" font-style="normal" dominant-baseline="middle" text-anchor="middle" transform="translate(20 25)">b</text></g><g transform="translate(70 0)"><ellipse cx="20" cy="25" rx="19" ry="19" fill="hsl(35, 60%, 80%)" stroke="black" stroke-width="2"></ellipse><text x="0" y="0" fill="black" font-family="Arial, Helvetica, sans-serif" font-size="18px" font-weight="normal" font-style="normal" dominant-baseline="middle" text-anchor="middle" transform="translate(20 25)">1</text></g></g><g transform="translate(0 70)"><rect x="0" y="10" width="1410.801270189222" height="48" fill="white" stroke="black" stroke-width="2" rx="0"></rect><text x="705.400635094611" y="35" fill="black" font-family="Arial, Helvetica, sans-serif" font-size="24px" font-weight="normal" font-style="normal" dominant-baseline="middle" text-anchor="middle" width="1410.801270189222">PowerSet</text></g><g transform="translate(0 160)"><g><line x1="0" y1="25" x2="1100" y2="25" stroke="black" stroke-width="2"></line><polyline points="1090,19.226497308103742 1100,25 1090,30.773502691896258" fill="none" stroke="black" stroke-width="2" stroke-linecap="square"></polyline></g><g transform="translate(1049 0)"><line x1="0" y1="0" x2="0" y2="50" stroke="black" stroke-width="2"></line></g><g transform="rotate(30 930 25) translate(930 0)"><g><line x1="0" y1="25" x2="569.6152422706631" y2="25" stroke="black" stroke-width="2"></line><polyline points="559.6152422706631,19.226497308103742 569.6152422706631,25 559.6152422706631,30.773502691896258" fill="none" stroke="black" stroke-width="2" stroke-linecap="square"></polyline></g><g transform="translate(518.6152422706631 0)"><line x1="0" y1="0" x2="0" y2="50" stroke="black" stroke-width="2"></line></g><g transform="translate(361.051177665153 0)"><ellipse cx="20" cy="25" rx="19" ry="19" fill="hsl(152, 60%, 80%)" stroke="black" stroke-width="2"></ellipse><text x="0" y="0" fill="black" font-family="Arial, Helvetica, sans-serif" font-size="18px" font-weight="normal" font-style="normal" dominant-baseline="middle" text-anchor="middle" transform="translate(20 25)">C</text></g><g transform="translate(222.48711305964278 0)"><ellipse cx="20" cy="25" rx="19" ry="19" fill="hsl(44, 60%, 80%)" stroke="black" stroke-width="2"></ellipse><text x="0" y="0" fill="black" font-family="Arial, Helvetica, sans-serif" font-size="18px" font-weight="normal" font-style="normal" dominant-baseline="middle" text-anchor="middle" transform="translate(20 25)">b</text></g><g transform="translate(83.92304845413263 0)"><ellipse cx="20" cy="25" rx="19" ry="19" fill="hsl(35, 60%, 80%)" stroke="black" stroke-width="2"></ellipse><text x="0" y="0" fill="black" font-family="Arial, Helvetica, sans-serif" font-size="18px" font-weight="normal" font-style="normal" dominant-baseline="middle" text-anchor="middle" transform="translate(20 25)">1</text></g></g><g transform="rotate(30 810 25) translate(810 0)"><g><line x1="0" y1="25" x2="431.051177665153" y2="25" stroke="black" stroke-width="2"></line><polyline points="421.051177665153,19.226497308103742 431.051177665153,25 421.051177665153,30.773502691896258" fill="none" stroke="black" stroke-width="2" stroke-linecap="square"></polyline></g><g transform="translate(380.051177665153 0)"><line x1="0" y1="0" x2="0" y2="50" stroke="black" stroke-width="2"></line></g><g transform="translate(222.48711305964278 0)"><ellipse cx="20" cy="25" rx="19" ry="19" fill="hsl(152, 60%, 80%)" stroke="black" stroke-width="2"></ellipse><text x="0" y="0" fill="black" font-family="Arial, Helvetica, sans-serif" font-size="18px" font-weight="normal" font-style="normal" dominant-baseline="middle" text-anchor="middle" transform="translate(20 25)">C</text></g><g transform="translate(83.92304845413263 0)"><ellipse cx="20" cy="25" rx="19" ry="19" fill="hsl(44, 60%, 80%)" stroke="black" stroke-width="2"></ellipse><text x="0" y="0" fill="black" font-family="Arial, Helvetica, sans-serif" font-size="18px" font-weight="normal" font-style="normal" dominant-baseline="middle" text-anchor="middle" transform="translate(20 25)">b</text></g></g><g transform="rotate(30 690 25) translate(690 0)"><g><line x1="0" y1="25" x2="431.051177665153" y2="25" stroke="black" stroke-width="2"></line><polyline points="421.051177665153,19.226497308103742 431.051177665153,25 421.051177665153,30.773502691896258" fill="none" stroke="black" stroke-width="2" stroke-linecap="square"></polyline></g><g transform="translate(380.051177665153 0)"><line x1="0" y1="0" x2="0" y2="50" stroke="black" stroke-width="2"></line></g><g transform="translate(222.48711305964278 0)"><ellipse cx="20" cy="25" rx="19" ry="19" fill="hsl(152, 60%, 80%)" stroke="black" stroke-width="2"></ellipse><text x="0" y="0" fill="black" font-family="Arial, Helvetica, sans-serif" font-size="18px" font-weight="normal" font-style="normal" dominant-baseline="middle" text-anchor="middle" transform="translate(20 25)">C</text></g><g transform="translate(83.92304845413263 0)"><ellipse cx="20" cy="25" rx="19" ry="19" fill="hsl(35, 60%, 80%)" stroke="black" stroke-width="2"></ellipse><text x="0" y="0" fill="black" font-family="Arial, Helvetica, sans-serif" font-size="18px" font-weight="normal" font-style="normal" dominant-baseline="middle" text-anchor="middle" transform="translate(20 25)">1</text></g></g><g transform="rotate(30 570 25) translate(570 0)"><g><line x1="0" y1="25" x2="431.051177665153" y2="25" stroke="black" stroke-width="2"></line><polyline points="421.051177665153,19.226497308103742 431.051177665153,25 421.051177665153,30.773502691896258" fill="none" stroke="black" stroke-width="2" stroke-linecap="square"></polyline></g><g transform="translate(380.051177665153 0)"><line x1="0" y1="0" x2="0" y2="50" stroke="black" stroke-width="2"></line></g><g transform="translate(222.48711305964278 0)"><ellipse cx="20" cy="25" rx="19" ry="19" fill="hsl(44, 60%, 80%)" stroke="black" stroke-width="2"></ellipse><text x="0" y="0" fill="black" font-family="Arial, Helvetica, sans-serif" font-size="18px" font-weight="normal" font-style="normal" dominant-baseline="middle" text-anchor="middle" transform="translate(20 25)">b</text></g><g transform="translate(83.92304845413263 0)"><ellipse cx="20" cy="25" rx="19" ry="19" fill="hsl(35, 60%, 80%)" stroke="black" stroke-width="2"></ellipse><text x="0" y="0" fill="black" font-family="Arial, Helvetica, sans-serif" font-size="18px" font-weight="normal" font-style="normal" dominant-baseline="middle" text-anchor="middle" transform="translate(20 25)">1</text></g></g><g transform="rotate(30 450 25) translate(450 0)"><g><line x1="0" y1="25" x2="292.48711305964275" y2="25" stroke="black" stroke-width="2"></line><polyline points="282.48711305964275,19.226497308103742 292.48711305964275,25 282.48711305964275,30.773502691896258" fill="none" stroke="black" stroke-width="2" stroke-linecap="square"></polyline></g><g transform="translate(241.48711305964278 0)"><line x1="0" y1="0" x2="0" y2="50" stroke="black" stroke-width="2"></line></g><g transform="translate(83.92304845413263 0)"><ellipse cx="20" cy="25" rx="19" ry="19" fill="hsl(152, 60%, 80%)" stroke="black" stroke-width="2"></ellipse><text x="0" y="0" fill="black" font-family="Arial, Helvetica, sans-serif" font-size="18px" font-weight="normal" font-style="normal" dominant-baseline="middle" text-anchor="middle" transform="translate(20 25)">C</text></g></g><g transform="rotate(30 330 25) translate(330 0)"><g><line x1="0" y1="25" x2="292.48711305964275" y2="25" stroke="black" stroke-width="2"></line><polyline points="282.48711305964275,19.226497308103742 292.48711305964275,25 282.48711305964275,30.773502691896258" fill="none" stroke="black" stroke-width="2" stroke-linecap="square"></polyline></g><g transform="translate(241.48711305964278 0)"><line x1="0" y1="0" x2="0" y2="50" stroke="black" stroke-width="2"></line></g><g transform="translate(83.92304845413263 0)"><ellipse cx="20" cy="25" rx="19" ry="19" fill="hsl(44, 60%, 80%)" stroke="black" stroke-width="2"></ellipse><text x="0" y="0" fill="black" font-family="Arial, Helvetica, sans-serif" font-size="18px" font-weight="normal" font-style="normal" dominant-baseline="middle" text-anchor="middle" transform="translate(20 25)">b</text></g></g><g transform="rotate(30 210 25) translate(210 0)"><g><line x1="0" y1="25" x2="292.48711305964275" y2="25" stroke="black" stroke-width="2"></line><polyline points="282.48711305964275,19.226497308103742 292.48711305964275,25 282.48711305964275,30.773502691896258" fill="none" stroke="black" stroke-width="2" stroke-linecap="square"></polyline></g><g transform="translate(241.48711305964278 0)"><line x1="0" y1="0" x2="0" y2="50" stroke="black" stroke-width="2"></line></g><g transform="translate(83.92304845413263 0)"><ellipse cx="20" cy="25" rx="19" ry="19" fill="hsl(35, 60%, 80%)" stroke="black" stroke-width="2"></ellipse><text x="0" y="0" fill="black" font-family="Arial, Helvetica, sans-serif" font-size="18px" font-weight="normal" font-style="normal" dominant-baseline="middle" text-anchor="middle" transform="translate(20 25)">1</text></g></g><g transform="rotate(30 90 25) translate(90 0)"><g><line x1="0" y1="25" x2="153.92304845413264" y2="25" stroke="black" stroke-width="2"></line><polyline points="143.92304845413264,19.226497308103742 153.92304845413264,25 143.92304845413264,30.773502691896258" fill="none" stroke="black" stroke-width="2" stroke-linecap="square"></polyline></g><g transform="translate(102.92304845413263 0)"><line x1="0" y1="0" x2="0" y2="50" stroke="black" stroke-width="2"></line></g></g></g></g></svg>