<svg xmlns="http://www.w3.org/2000/svg" viewBox="0 0 910 260" width="910" height="260"><rect x="0" y="0" width="910" height="260" fill="white"></rect><g transform="translate(25 25)"><g><g><line x1="0" y1="25" x2="860" y2="25" stroke="black" stroke-width="2"></line><polyline points="850,19.226497308103742 860,25 850,30.773502691896258" fill="none" stroke="black" stroke-width="2" stroke-linecap="square"></polyline></g><g transform="translate(809 0)"><line x1="0" y1="0" x2="0" y2="50" stroke="black" stroke-width="2"></line></g><g transform="translate(670 0)"><ellipse cx="20" cy="25" rx="19" ry="19" fill="hsl(46, 60%, 80%)" stroke="black" stroke-width="2"></ellipse><text x="0" y="0" fill="black" font-family="Arial, Helvetica, sans-serif" font-size="18px" font-weight="normal" font-style="normal" dominant-baseline="middle" text-anchor="middle" transform="translate(20 25)">F</text></g><g transform="translate(550 0)"><ellipse cx="20" cy="25" rx="19" ry="19" fill="hsl(105, 60%, 80%)" stroke="black" stroke-width="2"></ellipse><text x="0" y="0" fill="black" font-family="Arial, Helvetica, sans-serif" font-size="18px" font-weight="normal" font-style="normal" dominant-baseline="middle" text-anchor="middle" transform="translate(20 25)">E</text></g><g transform="translate(430 0)"><ellipse cx="20" cy="25" rx="19" ry="19" fill="hsl(327, 60%, 80%)" stroke="black" stroke-width="2"></ellipse><text x="0" y="0" fill="black" font-family="Arial, Helvetica, sans-serif" font-size="18px" font-weight="normal" font-style="normal" dominant-baseline="middle" text-anchor="middle" transform="translate(20 25)">D</text></g><g transform="translate(310 0)"><ellipse cx="20" cy="25" rx="19" ry="19" fill="hsl(152, 60%, 80%)" stroke="black" stroke-width="2"></ellipse><text x="0" y="0" fill="black" font-family="Arial, Helvetica, sans-serif" font-size="18px" font-weight="normal" font-style="normal" dominant-baseline="middle" text-anchor="middle" transform="translate(20 25)">C</text></g><g transform="translate(190 0)"><ellipse cx="20" cy="25" rx="19" ry="19" fill="hsl(56, 60%, 80%)" stroke="black" stroke-width="2"></ellipse><text x="0" y="0" fill="black" font-family="Arial, Helvetica, sans-serif" font-size="18px" font-weight="normal" font-style="normal" dominant-baseline="middle" text-anchor="middle" transform="translate(20 25)">B</text></g><g transform="translate(70 0)"><ellipse cx="20" cy="25" rx="19" ry="19" fill="hsl(108, 60%, 80%)" stroke="black" stroke-width="2"></ellipse><text x="0" y="0" fill="black" font-family="Arial, Helvetica, sans-serif" font-size="18px" font-weight="normal" font-style="normal" dominant-baseline="middle" text-anchor="middle" transform="translate(20 25)">A</text></g></g><g transform="translate(0 70)"><rect x="0" y="10" width="860" height="48" fill="white" stroke="black" stroke-width="2" rx="0"></rect><text x="430" y="35" fill="black" font-family="Arial, Helvetica, sans-serif" font-size="24px" font-weight="normal" font-style="normal" dominant-baseline="middle" text-anchor="middle" width="860">Shuffle</text></g><g transform="translate(0 160)"><g><line x1="0" y1="25" x2="860" y2="25" stroke="black" stroke-width="2"></line><polyline points="850,19.226497308103742 860,25 850,30.773502691896258" fill="none" stroke="black" stroke-width="2" stroke-linecap="square"></polyline></g><g transform="translate(809 0)"><line x1="0" y1="0" x2="0" y2="50" stroke="black" stroke-width="2"></line></g><g transform="translate(670 0)"><ellipse cx="20" cy="25" rx="19" ry="19" fill="hsl(108, 60%, 80%)" stroke="black" stroke-width="2"></ellipse><text x="0" y="0" fill="black" font-family="Arial, Helvetica, sans-serif" font-size="18px" font-weight="normal" font-style="normal" dominant-baseline="middle" text-anchor="middle" transform="translate(20 25)">A</text></g><g transform="translate(550 0)"><ellipse cx="20" cy="25" rx="19" ry="19" fill="hsl(105, 60%, 80%)" stroke="black" stroke-width="2"></ellipse><text x="0" y="0" fill="black" font-family="Arial, Helvetica, sans-serif" font-size="18px" font-weight="normal" font-style="normal" dominant-baseline="middle" text-anchor="middle" transform="translate(20 25)">E</text></g><g transform="translate(430 0)"><ellipse cx="20" cy="25" rx="19" ry="19" fill="hsl(327, 60%, 80%)" stroke="black" stroke-width="2"></ellipse><text x="0" y="0" fill="black" font-family="Arial, Helvetica, sans-serif" font-size="18px" font-weight="normal" font-style="normal" dominant-baseline="middle" text-anchor="middle" transform="translate(20 25)">D</text></g><g transform="translate(310 0)"><ellipse cx="20" cy="25" rx="19" ry="19" fill="hsl(46, 60%, 80%)" stroke="black" stroke-width="2"></ellipse><text x="0" y="0" fill="black" font-family="Arial, Helvetica, sans-serif" font-size="18px" font-weight="normal" font-style="normal" dominant-baseline="middle" text-anchor="middle" transform="translate(20 25)">F</text></g><g transform="translate(190 0)"><ellipse cx="20" cy="25" rx="19" ry="19" fill="hsl(56, 60%, 80%)" stroke="black" stroke-width="2"></ellipse><text x="0" y="0" fill="black" font-family="Arial, Helvetica, sans-serif" font-size="18px" font-weight="normal" font-style="normal" dominant-baseline="middle" text-anchor="middle" transform="translate(20 25)">B</text></g><g transform="translate(70 0)"><ellipse cx="20" cy="25" rx="19" ry="19" fill="hsl(152, 60%, 80%)" stroke="black" stroke-width="2"></ellipse><text x="0" y="0" fill="black" font-family="Arial, Helvetica, sans-serif" font-size="18px" font-weight="normal" font-style="normal" dominant-baseline="middle" text-anchor="middle" transform="translate(20 25)">C</text></g></g></g></svg>