<svg xmlns="http://www.w3.org/2000/svg" viewBox="0 0 1739.827400955384 508.1694439138187" width="1739.827400955384" height="508.1694439138187"><rect x="0" y="0" width="1739.827400955384" height="508.1694439138187" fill="white"></rect><g transform="translate(25 25)"><g><g><line x1="0" y1="25" x2="1580" y2="25" stroke="black" stroke-width="2"></line><polyline points="1570,19.226497308103742 1580,25 1570,30.773502691896258" fill="none" stroke="black" stroke-width="2" stroke-linecap="square"></polyline></g><g transform="translate(1529 0)"><line x1="0" y1="0" x2="0" y2="50" stroke="black" stroke-width="2"></line></g><g transform="translate(1360 0)"><ellipse cx="20" cy="25" rx="19" ry="19" fill="hsl(303, 60%, 80%)" stroke="black" stroke-width="2"></ellipse><text x="0" y="0" fill="black" font-family="Arial, Helvetica, sans-serif" font-size="18px" font-weight="normal" font-style="normal" dominant-baseline="middle" text-anchor="middle" transform="translate(20 25)">k</text></g><g transform="translate(1210 0)"><ellipse cx="20" cy="25" rx="19" ry="19" fill="hsl(264, 60%, 80%)" stroke="black" stroke-width="2"></ellipse><text x="0" y="0" fill="black" font-family="Arial, Helvetica, sans-serif" font-size="18px" font-weight="normal" font-style="normal" dominant-baseline="middle" text-anchor="middle" transform="translate(20 25)">8</text></g><g transform="translate(1060 0)"><ellipse cx="20" cy="25" rx="19" ry="19" fill="hsl(244, 60%, 80%)" stroke="black" stroke-width="2"></ellipse><text x="0" y="0" fill="black" font-family="Arial, Helvetica, sans-serif" font-size="18px" font-weight="normal" font-style="normal" dominant-baseline="middle" text-anchor="middle" transform="translate(20 25)">x</text></g><g transform="translate(910 0)"><ellipse cx="20" cy="25" rx="19" ry="19" fill="hsl(94, 60%, 80%)" stroke="black" stroke-width="2"></ellipse><text x="0" y="0" fill="black" font-family="Arial, Helvetica, sans-serif" font-size="18px" font-weight="normal" font-style="normal" dominant-baseline="middle" text-anchor="middle" transform="translate(20 25)">l</text></g><g transform="translate(760 0)"><ellipse cx="20" cy="25" rx="19" ry="19" fill="hsl(117, 60%, 80%)" stroke="black" stroke-width="2"></ellipse><text x="0" y="0" fill="black" font-family="Arial, Helvetica, sans-serif" font-size="18px" font-weight="normal" font-style="normal" dominant-baseline="middle" text-anchor="middle" transform="translate(20 25)">4</text></g><g transform="translate(610 0)"><ellipse cx="20" cy="25" rx="19" ry="19" fill="hsl(103, 60%, 80%)" stroke="black" stroke-width="2"></ellipse><text x="0" y="0" fill="black" font-family="Arial, Helvetica, sans-serif" font-size="18px" font-weight="normal" font-style="normal" dominant-baseline="middle" text-anchor="middle" transform="translate(20 25)">s</text></g><g transform="translate(460 0)"><ellipse cx="20" cy="25" rx="19" ry="19" fill="hsl(170, 60%, 80%)" stroke="black" stroke-width="2"></ellipse><text x="0" y="0" fill="black" font-family="Arial, Helvetica, sans-serif" font-size="18px" font-weight="normal" font-style="normal" dominant-baseline="middle" text-anchor="middle" transform="translate(20 25)">5</text></g><g transform="translate(310 0)"><ellipse cx="20" cy="25" rx="19" ry="19" fill="hsl(32, 60%, 80%)" stroke="black" stroke-width="2"></ellipse><text x="0" y="0" fill="black" font-family="Arial, Helvetica, sans-serif" font-size="18px" font-weight="normal" font-style="normal" dominant-baseline="middle" text-anchor="middle" transform="translate(20 25)">g</text></g><g transform="translate(160 0)"><ellipse cx="20" cy="25" rx="19" ry="19" fill="hsl(206, 60%, 80%)" stroke="black" stroke-width="2"></ellipse><text x="0" y="0" fill="black" font-family="Arial, Helvetica, sans-serif" font-size="18px" font-weight="normal" font-style="normal" dominant-baseline="middle" text-anchor="middle" transform="translate(20 25)">2</text></g></g><g transform="translate(0 70)"><rect x="0" y="10" width="1689.827400955384" height="48" fill="white" stroke="black" stroke-width="2" rx="0"></rect><text x="844.913700477692" y="35" fill="black" font-family="Arial, Helvetica, sans-serif" font-size="24px" font-weight="normal" font-style="normal" dominant-baseline="middle" text-anchor="middle" width="1689.827400955384">SlidingWindow(4)</text></g><g transform="translate(0 160)"><g><line x1="0" y1="25" x2="1160" y2="25" stroke="black" stroke-width="2"></line><polyline points="1150,19.226497308103742 1160,25 1150,30.773502691896258" fill="none" stroke="black" stroke-width="2" stroke-linecap="square"></polyline></g><g transform="translate(1109 0)"><line x1="0" y1="0" x2="0" y2="50" stroke="black" stroke-width="2"></line></g><g transform="rotate(18 930 25) translate(930 0)"><g><line x1="0" y1="25" x2="807.0528014515525" y2="25" stroke="black" stroke-width="2"></line><polyline points="797.0528014515525,19.226497308103742 807.0528014515525,25 797.0528014515525,30.773502691896258" fill="none" stroke="black" stroke-width="2" stroke-linecap="square"></polyline></g><g transform="translate(756.0528014515525 0)"><line x1="0" y1="0" x2="0" y2="50" stroke="black" stroke-width="2"></line></g><g transform="translate(579.3334678158122 0)"><ellipse cx="20" cy="25" rx="19" ry="19" fill="hsl(303, 60%, 80%)" stroke="black" stroke-width="2"></ellipse><text x="0" y="0" fill="black" font-family="Arial, Helvetica, sans-serif" font-size="18px" font-weight="normal" font-style="normal" dominant-baseline="middle" text-anchor="middle" transform="translate(20 25)">k</text></g><g transform="translate(421.61413418007226 0)"><ellipse cx="20" cy="25" rx="19" ry="19" fill="hsl(264, 60%, 80%)" stroke="black" stroke-width="2"></ellipse><text x="0" y="0" fill="black" font-family="Arial, Helvetica, sans-serif" font-size="18px" font-weight="normal" font-style="normal" dominant-baseline="middle" text-anchor="middle" transform="translate(20 25)">8</text></g><g transform="translate(263.89480054433216 0)"><ellipse cx="20" cy="25" rx="19" ry="19" fill="hsl(244, 60%, 80%)" stroke="black" stroke-width="2"></ellipse><text x="0" y="0" fill="black" font-family="Arial, Helvetica, sans-serif" font-size="18px" font-weight="normal" font-style="normal" dominant-baseline="middle" text-anchor="middle" transform="translate(20 25)">x</text></g><g transform="translate(106.17546690859206 0)"><ellipse cx="20" cy="25" rx="19" ry="19" fill="hsl(94, 60%, 80%)" stroke="black" stroke-width="2"></ellipse><text x="0" y="0" fill="black" font-family="Arial, Helvetica, sans-serif" font-size="18px" font-weight="normal" font-style="normal" dominant-baseline="middle" text-anchor="middle" transform="translate(20 25)">l</text></g></g><g transform="rotate(18 780 25) translate(780 0)"><g><line x1="0" y1="25" x2="807.0528014515525" y2="25" stroke="black" stroke-width="2"></line><polyline points="797.0528014515525,19.226497308103742 807.0528014515525,25 797.0528014515525,30.773502691896258" fill="none" stroke="black" stroke-width="2" stroke-linecap="square"></polyline></g><g transform="translate(756.0528014515525 0)"><line x1="0" y1="0" x2="0" y2="50" stroke="black" stroke-width="2"></line></g><g transform="translate(579.3334678158122 0)"><ellipse cx="20" cy="25" rx="19" ry="19" fill="hsl(264, 60%, 80%)" stroke="black" stroke-width="2"></ellipse><text x="0" y="0" fill="black" font-family="Arial, Helvetica, sans-serif" font-size="18px" font-weight="normal" font-style="normal" dominant-baseline="middle" text-anchor="middle" transform="translate(20 25)">8</text></g><g transform="translate(421.61413418007226 0)"><ellipse cx="20" cy="25" rx="19" ry="19" fill="hsl(244, 60%, 80%)" stroke="black" stroke-width="2"></ellipse><text x="0" y="0" fill="black" font-family="Arial, Helvetica, sans-serif" font-size="18px" font-weight="normal" font-style="normal" dominant-baseline="middle" text-anchor="middle" transform="translate(20 25)">x</text></g><g transform="translate(263.89480054433216 0)"><ellipse cx="20" cy="25" rx="19" ry="19" fill="hsl(94, 60%, 80%)" stroke="black" stroke-width="2"></ellipse><text x="0" y="0" fill="black" font-family="Arial, Helvetica, sans-serif" font-size="18px" font-weight="normal" font-style="normal" dominant-baseline="middle" text-anchor="middle" transform="translate(20 25)">l</text></g><g transform="translate(106.17546690859206 0)"><ellipse cx="20" cy="25" rx="19" ry="19" fill="hsl(117, 60%, 80%)" stroke="black" stroke-width="2"></ellipse><text x="0" y="0" fill="black" font-family="Arial, Helvetica, sans-serif" font-size="18px" font-weight="normal" font-style="normal" dominant-baseline="middle" text-anchor="middle" transform="translate(20 25)">4</text></g></g><g transform="rotate(18 630 25) translate(630 0)"><g><line x1="0" y1="25" x2="807.0528014515525" y2="25" stroke="black" stroke-width="2"></line><polyline points="797.0528014515525,19.226497308103742 807.0528014515525,25 797.0528014515525,30.773502691896258" fill="none" stroke="black" stroke-width="2" stroke-linecap="square"></polyline></g><g transform="translate(756.0528014515525 0)"><line x1="0" y1="0" x2="0" y2="50" stroke="black" stroke-width="2"></line></g><g transform="translate(579.3334678158122 0)"><ellipse cx="20" cy="25" rx="19" ry="19" fill="hsl(244, 60%, 80%)" stroke="black" stroke-width="2"></ellipse><text x="0" y="0" fill="black" font-family="Arial, Helvetica, sans-serif" font-size="18px" font-weight="normal" font-style="normal" dominant-baseline="middle" text-anchor="middle" transform="translate(20 25)">x</text></g><g transform="translate(421.61413418007226 0)"><ellipse cx="20" cy="25" rx="19" ry="19" fill="hsl(94, 60%, 80%)" stroke="black" stroke-width="2"></ellipse><text x="0" y="0" fill="black" font-family="Arial, Helvetica, sans-serif" font-size="18px" font-weight="normal" font-style="normal" dominant-baseline="middle" text-anchor="middle" transform="translate(20 25)">l</text></g><g transform="translate(263.89480054433216 0)"><ellipse cx="20" cy="25" rx="19" ry="19" fill="hsl(117, 60%, 80%)" stroke="black" stroke-width="2"></ellipse><text x="0" y="0" fill="black" font-family="Arial, Helvetica, sans-serif" font-size="18px" font-weight="normal" font-style="normal" dominant-baseline="middle" text-anchor="middle" transform="translate(20 25)">4</text></g><g transform="translate(106.17546690859206 0)"><ellipse cx="20" cy="25" rx="19" ry="19" fill="hsl(103, 60%, 80%)" stroke="black" stroke-width="2"></ellipse><text x="0" y="0" fill="black" font-family="Arial, Helvetica, sans-serif" font-size="18px" font-weight="normal" font-style="normal" dominant-baseline="middle" text-anchor="middle" transform="translate(20 25)">s</text></g></g><g transform="rotate(18 480 25) translate(480 0)"><g><line x1="0" y1="25" x2="807.0528014515525" y2="25" stroke="black" stroke-width="2"></line><polyline points="797.0528014515525,19.226497308103742 807.0528014515525,25 797.0528014515525,30.773502691896258" fill="none" stroke="black" stroke-width="2" stroke-linecap="square"></polyline></g><g transform="translate(756.0528014515525 0)"><line x1="0" y1="0" x2="0" y2="50" stroke="black" stroke-width="2"></line></g><g transform="translate(579.3334678158122 0)"><ellipse cx="20" cy="25" rx="19" ry="19" fill="hsl(94, 60%, 80%)" stroke="black" stroke-width="2"></ellipse><text x="0" y="0" fill="black" font-family="Arial, Helvetica, sans-serif" font-size="18px" font-weight="normal" font-style="normal" dominant-baseline="middle" text-anchor="middle" transform="translate(20 25)">l</text></g><g transform="translate(421.61413418007226 0)"><ellipse cx="20" cy="25" rx="19" ry="19" fill="hsl(117, 60%, 80%)" stroke="black" stroke-width="2"></ellipse><text x="0" y="0" fill="black" font-family="Arial, Helvetica, sans-serif" font-size="18px" font-weight="normal" font-style="normal" dominant-baseline="middle" text-anchor="middle" transform="translate(20 25)">4</text></g><g transform="translate(263.89480054433216 0)"><ellipse cx="20" cy="25" rx="19" ry="19" fill="hsl(103, 60%, 80%)" stroke="black" stroke-width="2"></ellipse><text x="0" y="0" fill="black" font-family="Arial, Helvetica, sans-serif" font-size="18px" font-weight="normal" font-style="normal" dominant-baseline="middle" text-anchor="middle" transform="translate(20 25)">s</text></g><g transform="translate(106.17546690859206 0)"><ellipse cx="20" cy="25" rx="19" ry="19" fill="hsl(170, 60%, 80%)" stroke="black" stroke-width="2"></ellipse><text x="0" y="0" fill="black" font-family="Arial, Helvetica, sans-serif" font-size="18px" font-weight="normal" font-style="normal" dominant-baseline="middle" text-anchor="middle" transform="translate(20 25)">5</text></g></g><g transform="rotate(18 330 25) translate(330 0)"><g><line x1="0" y1="25" x2="807.0528014515525" y2="25" stroke="black" stroke-width="2"></line><polyline points="797.0528014515525,19.226497308103742 807.0528014515525,25 797.0528014515525,30.773502691896258" fill="none" stroke="black" stroke-width="2" stroke-linecap="square"></polyline></g><g transform="translate(756.0528014515525 0)"><line x1="0" y1="0" x2="0" y2="50" stroke="black" stroke-width="2"></line></g><g transform="translate(579.3334678158122 0)"><ellipse cx="20" cy="25" rx="19" ry="19" fill="hsl(117, 60%, 80%)" stroke="black" stroke-width="2"></ellipse><text x="0" y="0" fill="black" font-family="Arial, Helvetica, sans-serif" font-size="18px" font-weight="normal" font-style="normal" dominant-baseline="middle" text-anchor="middle" transform="translate(20 25)">4</text></g><g transform="translate(421.61413418007226 0)"><ellipse cx="20" cy="25" rx="19" ry="19" fill="hsl(103, 60%, 80%)" stroke="black" stroke-width="2"></ellipse><text x="0" y="0" fill="black" font-family="Arial, Helvetica, sans-serif" font-size="18px" font-weight="normal" font-style="normal" dominant-baseline="middle" text-anchor="middle" transform="translate(20 25)">s</text></g><g transform="translate(263.89480054433216 0)"><ellipse cx="20" cy="25" rx="19" ry="19" fill="hsl(170, 60%, 80%)" stroke="black" stroke-width="2"></ellipse><text x="0" y="0" fill="black" font-family="Arial, Helvetica, sans-serif" font-size="18px" font-weight="normal" font-style="normal" dominant-baseline="middle" text-anchor="middle" transform="translate(20 25)">5</text></g><g transform="translate(106.17546690859206 0)"><ellipse cx="20" cy="25" rx="19" ry="19" fill="hsl(32, 60%, 80%)" stroke="black" stroke-width="2"></ellipse><text x="0" y="0" fill="black" font-family="Arial, Helvetica, sans-serif" font-size="18px" font-weight="normal" font-style="normal" dominant-baseline="middle" text-anchor="middle" transform="translate(20 25)">g</text></g></g><g transform="rotate(18 180 25) translate(180 0)"><g><line x1="0" y1="25" x2="807.0528014515525" y2="25" stroke="black" stroke-width="2"></line><polyline points="797.0528014515525,19.226497308103742 807.0528014515525,25 797.0528014515525,30.773502691896258" fill="none" stroke="black" stroke-width="2" stroke-linecap="square"></polyline></g><g transform="translate(756.0528014515525 0)"><line x1="0" y1="0" x2="0" y2="50" stroke="black" stroke-width="2"></line></g><g transform="translate(579.3334678158122 0)"><ellipse cx="20" cy="25" rx="19" ry="19" fill="hsl(103, 60%, 80%)" stroke="black" stroke-width="2"></ellipse><text x="0" y="0" fill="black" font-family="Arial, Helvetica, sans-serif" font-size="18px" font-weight="normal" font-style="normal" dominant-baseline="middle" text-anchor="middle" transform="translate(20 25)">s</text></g><g transform="translate(421.61413418007226 0)"><ellipse cx="20" cy="25" rx="19" ry="19" fill="hsl(170, 60%, 80%)" stroke="black" stroke-width="2"></ellipse><text x="0" y="0" fill="black" font-family="Arial, Helvetica, sans-serif" font-size="18px" font-weight="normal" font-style="normal" dominant-baseline="middle" text-anchor="middle" transform="translate(20 25)">5</text></g><g transform="translate(263.89480054433216 0)"><ellipse cx="20" cy="25" rx="19" ry="19" fill="hsl(32, 60%, 80%)" stroke="black" stroke-width="2"></ellipse><text x="0" y="0" fill="black" font-family="Arial, Helvetica, sans-serif" font-size="18px" font-weight="normal" font-style="normal" dominant-baseline="middle" text-anchor="middle" transform="translate(20 25)">g</text></g><g transform="translate(106.17546690859206 0)"><ellipse cx="20" cy="25" rx="19" ry="19" fill="hsl(206, 60%, 80%)" stroke="black" stroke-width="2"></ellipse><text x="0" y="0" fill="black" font-family="Arial, Helvetica, sans-serif" font-size="18px" font-weight="normal" font-style="normal" dominant-baseline="middle" text-anchor="middle" transform="translate(20 25)">2</text></g></g></g></g></svg>