<svg xmlns="http://www.w3.org/2000/svg" viewBox="0 0 1240 260" width="1240" height="260"><rect x="0" y="0" width="1240" height="260" fill="white"></rect><g transform="translate(25 25)"><g><g><line x1="0" y1="25" x2="1190" y2="25" stroke="black" stroke-width="2"></line><polyline points="1180,19.226497308103742 1190,25 1180,30.773502691896258" fill="none" stroke="black" stroke-width="2" stroke-linecap="square"></polyline></g><g transform="translate(1139 0)"><line x1="0" y1="0" x2="0" y2="50" stroke="black" stroke-width="2"></line></g><g transform="translate(1000 0)"><ellipse cx="20" cy="25" rx="19" ry="19" fill="hsl(206, 60%, 80%)" stroke="black" stroke-width="2"></ellipse><text x="0" y="0" fill="black" font-family="Arial, Helvetica, sans-serif" font-size="18px" font-weight="normal" font-style="normal" dominant-baseline="middle" text-anchor="middle" transform="translate(20 25)">2</text></g><g transform="translate(880 0)"><ellipse cx="20" cy="25" rx="19" ry="19" fill="hsl(147, 60%, 80%)" stroke="black" stroke-width="2"></ellipse><text x="0" y="0" fill="black" font-family="Arial, Helvetica, sans-serif" font-size="18px" font-weight="normal" font-style="normal" dominant-baseline="middle" text-anchor="middle" transform="translate(20 25)">3</text></g><g transform="translate(760 0)"><ellipse cx="20" cy="25" rx="19" ry="19" fill="hsl(244, 60%, 80%)" stroke="black" stroke-width="2"></ellipse><text x="0" y="0" fill="black" font-family="Arial, Helvetica, sans-serif" font-size="18px" font-weight="normal" font-style="normal" dominant-baseline="middle" text-anchor="middle" transform="translate(20 25)">X</text></g><g transform="translate(640 0)"><ellipse cx="20" cy="25" rx="19" ry="19" fill="hsl(213, 60%, 80%)" stroke="black" stroke-width="2"></ellipse><text x="0" y="0" fill="black" font-family="Arial, Helvetica, sans-serif" font-size="18px" font-weight="normal" font-style="normal" dominant-baseline="middle" text-anchor="middle" transform="translate(20 25)">p</text></g><g transform="translate(520 0)"><ellipse cx="20" cy="25" rx="19" ry="19" fill="hsl(108, 60%, 80%)" stroke="black" stroke-width="2"></ellipse><text x="0" y="0" fill="black" font-family="Arial, Helvetica, sans-serif" font-size="18px" font-weight="normal" font-style="normal" dominant-baseline="middle" text-anchor="middle" transform="translate(20 25)">A</text></g><g transform="translate(400 0)"><ellipse cx="20" cy="25" rx="19" ry="19" fill="hsl(32, 60%, 80%)" stroke="black" stroke-width="2"></ellipse><text x="0" y="0" fill="black" font-family="Arial, Helvetica, sans-serif" font-size="18px" font-weight="normal" font-style="normal" dominant-baseline="middle" text-anchor="middle" transform="translate(20 25)">g</text></g><g transform="translate(280 0)"><ellipse cx="20" cy="25" rx="19" ry="19" fill="hsl(206, 60%, 80%)" stroke="black" stroke-width="2"></ellipse><text x="0" y="0" fill="black" font-family="Arial, Helvetica, sans-serif" font-size="18px" font-weight="normal" font-style="normal" dominant-baseline="middle" text-anchor="middle" transform="translate(20 25)">2</text></g><g transform="translate(160 0)"><ellipse cx="20" cy="25" rx="19" ry="19" fill="hsl(32, 60%, 80%)" stroke="black" stroke-width="2"></ellipse><text x="0" y="0" fill="black" font-family="Arial, Helvetica, sans-serif" font-size="18px" font-weight="normal" font-style="normal" dominant-baseline="middle" text-anchor="middle" transform="translate(20 25)">c</text></g></g><g transform="translate(0 70)"><rect x="0" y="10" width="1190" height="48" fill="white" stroke="black" stroke-width="2" rx="0"></rect><text x="595" y="35" fill="black" font-family="Arial, Helvetica, sans-serif" font-size="24px" font-weight="normal" font-style="normal" dominant-baseline="middle" text-anchor="middle" width="1190">TakeEvery(3)</text></g><g transform="translate(0 160)"><g><line x1="0" y1="25" x2="1070" y2="25" stroke="black" stroke-width="2"></line><polyline points="1060,19.226497308103742 1070,25 1060,30.773502691896258" fill="none" stroke="black" stroke-width="2" stroke-linecap="square"></polyline></g><g transform="translate(1019 0)"><line x1="0" y1="0" x2="0" y2="50" stroke="black" stroke-width="2"></line></g><g transform="translate(880 0)"><ellipse cx="20" cy="25" rx="19" ry="19" fill="hsl(147, 60%, 80%)" stroke="black" stroke-width="2"></ellipse><text x="0" y="0" fill="black" font-family="Arial, Helvetica, sans-serif" font-size="18px" font-weight="normal" font-style="normal" dominant-baseline="middle" text-anchor="middle" transform="translate(20 25)">3</text></g><g transform="translate(520 0)"><ellipse cx="20" cy="25" rx="19" ry="19" fill="hsl(108, 60%, 80%)" stroke="black" stroke-width="2"></ellipse><text x="0" y="0" fill="black" font-family="Arial, Helvetica, sans-serif" font-size="18px" font-weight="normal" font-style="normal" dominant-baseline="middle" text-anchor="middle" transform="translate(20 25)">A</text></g><g transform="translate(160 0)"><ellipse cx="20" cy="25" rx="19" ry="19" fill="hsl(32, 60%, 80%)" stroke="black" stroke-width="2"></ellipse><text x="0" y="0" fill="black" font-family="Arial, Helvetica, sans-serif" font-size="18px" font-weight="normal" font-style="normal" dominant-baseline="middle" text-anchor="middle" transform="translate(20 25)">c</text></g></g></g></svg>