<svg xmlns="http://www.w3.org/2000/svg" viewBox="0 0 1250.801270189222 961.4805770653951" width="1250.801270189222" height="961.4805770653951"><rect x="0" y="0" width="1250.801270189222" height="961.4805770653951" fill="white"></rect><g transform="translate(25 25)"><g><g><line x1="0" y1="25" x2="860" y2="25" stroke="black" stroke-width="2"></line><polyline points="850,19.226497308103742 860,25 850,30.773502691896258" fill="none" stroke="black" stroke-width="2" stroke-linecap="square"></polyline></g><g transform="translate(809 0)"><line x1="0" y1="0" x2="0" y2="50" stroke="black" stroke-width="2"></line></g><g transform="rotate(30 600 25) translate(600 0)"><g><line x1="0" y1="25" x2="708.1793068761733" y2="25" stroke="black" stroke-width="2"></line><polyline points="698.1793068761733,19.226497308103742 708.1793068761733,25 698.1793068761733,30.773502691896258" fill="none" stroke="black" stroke-width="2" stroke-linecap="square"></polyline></g><g transform="translate(657.1793068761733 0)"><line x1="0" y1="0" x2="0" y2="50" stroke="black" stroke-width="2"></line></g><g transform="translate(499.6152422706631 0)"><ellipse cx="20" cy="25" rx="19" ry="19" fill="hsl(213, 60%, 80%)" stroke="black" stroke-width="2"></ellipse><text x="0" y="0" fill="black" font-family="Arial, Helvetica, sans-serif" font-size="18px" font-weight="normal" font-style="normal" dominant-baseline="middle" text-anchor="middle" transform="translate(20 25)">p</text></g><g transform="translate(361.051177665153 0)"><ellipse cx="20" cy="25" rx="19" ry="19" fill="hsl(40, 60%, 80%)" stroke="black" stroke-width="2"></ellipse><text x="0" y="0" fill="black" font-family="Arial, Helvetica, sans-serif" font-size="18px" font-weight="normal" font-style="normal" dominant-baseline="middle" text-anchor="middle" transform="translate(20 25)">q</text></g><g transform="translate(222.48711305964278 0)"><ellipse cx="20" cy="25" rx="19" ry="19" fill="hsl(147, 60%, 80%)" stroke="black" stroke-width="2"></ellipse><text x="0" y="0" fill="black" font-family="Arial, Helvetica, sans-serif" font-size="18px" font-weight="normal" font-style="normal" dominant-baseline="middle" text-anchor="middle" transform="translate(20 25)">3</text></g><g transform="translate(83.92304845413263 0)"><ellipse cx="20" cy="25" rx="19" ry="19" fill="hsl(244, 60%, 80%)" stroke="black" stroke-width="2"></ellipse><text x="0" y="0" fill="black" font-family="Arial, Helvetica, sans-serif" font-size="18px" font-weight="normal" font-style="normal" dominant-baseline="middle" text-anchor="middle" transform="translate(20 25)">x</text></g></g><g transform="rotate(30 390 25) translate(390 0)"><g><line x1="0" y1="25" x2="708.1793068761733" y2="25" stroke="black" stroke-width="2"></line><polyline points="698.1793068761733,19.226497308103742 708.1793068761733,25 698.1793068761733,30.773502691896258" fill="none" stroke="black" stroke-width="2" stroke-linecap="square"></polyline></g><g transform="translate(657.1793068761733 0)"><line x1="0" y1="0" x2="0" y2="50" stroke="black" stroke-width="2"></line></g><g transform="translate(499.6152422706631 0)"><ellipse cx="20" cy="25" rx="19" ry="19" fill="hsl(264, 60%, 80%)" stroke="black" stroke-width="2"></ellipse><text x="0" y="0" fill="black" font-family="Arial, Helvetica, sans-serif" font-size="18px" font-weight="normal" font-style="normal" dominant-baseline="middle" text-anchor="middle" transform="translate(20 25)">8</text></g><g transform="translate(361.051177665153 0)"><ellipse cx="20" cy="25" rx="19" ry="19" fill="hsl(244, 60%, 80%)" stroke="black" stroke-width="2"></ellipse><text x="0" y="0" fill="black" font-family="Arial, Helvetica, sans-serif" font-size="18px" font-weight="normal" font-style="normal" dominant-baseline="middle" text-anchor="middle" transform="translate(20 25)">x</text></g><g transform="translate(222.48711305964278 0)"><ellipse cx="20" cy="25" rx="19" ry="19" fill="hsl(94, 60%, 80%)" stroke="black" stroke-width="2"></ellipse><text x="0" y="0" fill="black" font-family="Arial, Helvetica, sans-serif" font-size="18px" font-weight="normal" font-style="normal" dominant-baseline="middle" text-anchor="middle" transform="translate(20 25)">l</text></g><g transform="translate(83.92304845413263 0)"><ellipse cx="20" cy="25" rx="19" ry="19" fill="hsl(117, 60%, 80%)" stroke="black" stroke-width="2"></ellipse><text x="0" y="0" fill="black" font-family="Arial, Helvetica, sans-serif" font-size="18px" font-weight="normal" font-style="normal" dominant-baseline="middle" text-anchor="middle" transform="translate(20 25)">4</text></g></g><g transform="rotate(30 180 25) translate(180 0)"><g><line x1="0" y1="25" x2="708.1793068761733" y2="25" stroke="black" stroke-width="2"></line><polyline points="698.1793068761733,19.226497308103742 708.1793068761733,25 698.1793068761733,30.773502691896258" fill="none" stroke="black" stroke-width="2" stroke-linecap="square"></polyline></g><g transform="translate(657.1793068761733 0)"><line x1="0" y1="0" x2="0" y2="50" stroke="black" stroke-width="2"></line></g><g transform="translate(499.6152422706631 0)"><ellipse cx="20" cy="25" rx="19" ry="19" fill="hsl(103, 60%, 80%)" stroke="black" stroke-width="2"></ellipse><text x="0" y="0" fill="black" font-family="Arial, Helvetica, sans-serif" font-size="18px" font-weight="normal" font-style="normal" dominant-baseline="middle" text-anchor="middle" transform="translate(20 25)">s</text></g><g transform="translate(361.051177665153 0)"><ellipse cx="20" cy="25" rx="19" ry="19" fill="hsl(170, 60%, 80%)" stroke="black" stroke-width="2"></ellipse><text x="0" y="0" fill="black" font-family="Arial, Helvetica, sans-serif" font-size="18px" font-weight="normal" font-style="normal" dominant-baseline="middle" text-anchor="middle" transform="translate(20 25)">5</text></g><g transform="translate(222.48711305964278 0)"><ellipse cx="20" cy="25" rx="19" ry="19" fill="hsl(32, 60%, 80%)" stroke="black" stroke-width="2"></ellipse><text x="0" y="0" fill="black" font-family="Arial, Helvetica, sans-serif" font-size="18px" font-weight="normal" font-style="normal" dominant-baseline="middle" text-anchor="middle" transform="translate(20 25)">g</text></g><g transform="translate(83.92304845413263 0)"><ellipse cx="20" cy="25" rx="19" ry="19" fill="hsl(206, 60%, 80%)" stroke="black" stroke-width="2"></ellipse><text x="0" y="0" fill="black" font-family="Arial, Helvetica, sans-serif" font-size="18px" font-weight="normal" font-style="normal" dominant-baseline="middle" text-anchor="middle" transform="translate(20 25)">2</text></g></g></g><g transform="translate(0 420.74028853269755)"><rect x="0" y="10" width="1200.801270189222" height="48" fill="white" stroke="black" stroke-width="2" rx="0"></rect><text x="600.400635094611" y="35" fill="black" font-family="Arial, Helvetica, sans-serif" font-size="24px" font-weight="normal" font-style="normal" dominant-baseline="middle" text-anchor="middle" width="1200.801270189222">Transpose</text></g><g transform="translate(0 510.74028853269755)"><g><line x1="0" y1="25" x2="620" y2="25" stroke="black" stroke-width="2"></line><polyline points="610,19.226497308103742 620,25 610,30.773502691896258" fill="none" stroke="black" stroke-width="2" stroke-linecap="square"></polyline></g><g transform="translate(569 0)"><line x1="0" y1="0" x2="0" y2="50" stroke="black" stroke-width="2"></line></g><g transform="rotate(30 450 25) translate(450 0)"><g><line x1="0" y1="25" x2="708.1793068761733" y2="25" stroke="black" stroke-width="2"></line><polyline points="698.1793068761733,19.226497308103742 708.1793068761733,25 698.1793068761733,30.773502691896258" fill="none" stroke="black" stroke-width="2" stroke-linecap="square"></polyline></g><g transform="translate(657.1793068761733 0)"><line x1="0" y1="0" x2="0" y2="50" stroke="black" stroke-width="2"></line></g><g transform="translate(464.97422611928556 0)"><ellipse cx="20" cy="25" rx="19" ry="19" fill="hsl(40, 60%, 80%)" stroke="black" stroke-width="2"></ellipse><text x="0" y="0" fill="black" font-family="Arial, Helvetica, sans-serif" font-size="18px" font-weight="normal" font-style="normal" dominant-baseline="middle" text-anchor="middle" transform="translate(20 25)">q</text></g><g transform="translate(291.7691453623979 0)"><ellipse cx="20" cy="25" rx="19" ry="19" fill="hsl(264, 60%, 80%)" stroke="black" stroke-width="2"></ellipse><text x="0" y="0" fill="black" font-family="Arial, Helvetica, sans-serif" font-size="18px" font-weight="normal" font-style="normal" dominant-baseline="middle" text-anchor="middle" transform="translate(20 25)">8</text></g><g transform="translate(118.56406460551017 0)"><ellipse cx="20" cy="25" rx="19" ry="19" fill="hsl(103, 60%, 80%)" stroke="black" stroke-width="2"></ellipse><text x="0" y="0" fill="black" font-family="Arial, Helvetica, sans-serif" font-size="18px" font-weight="normal" font-style="normal" dominant-baseline="middle" text-anchor="middle" transform="translate(20 25)">s</text></g></g><g transform="rotate(30 330 25) translate(330 0)"><g><line x1="0" y1="25" x2="708.1793068761733" y2="25" stroke="black" stroke-width="2"></line><polyline points="698.1793068761733,19.226497308103742 708.1793068761733,25 698.1793068761733,30.773502691896258" fill="none" stroke="black" stroke-width="2" stroke-linecap="square"></polyline></g><g transform="translate(657.1793068761733 0)"><line x1="0" y1="0" x2="0" y2="50" stroke="black" stroke-width="2"></line></g><g transform="translate(464.97422611928556 0)"><ellipse cx="20" cy="25" rx="19" ry="19" fill="hsl(213, 60%, 80%)" stroke="black" stroke-width="2"></ellipse><text x="0" y="0" fill="black" font-family="Arial, Helvetica, sans-serif" font-size="18px" font-weight="normal" font-style="normal" dominant-baseline="middle" text-anchor="middle" transform="translate(20 25)">p</text></g><g transform="translate(291.7691453623979 0)"><ellipse cx="20" cy="25" rx="19" ry="19" fill="hsl(244, 60%, 80%)" stroke="black" stroke-width="2"></ellipse><text x="0" y="0" fill="black" font-family="Arial, Helvetica, sans-serif" font-size="18px" font-weight="normal" font-style="normal" dominant-baseline="middle" text-anchor="middle" transform="translate(20 25)">x</text></g><g transform="translate(118.56406460551017 0)"><ellipse cx="20" cy="25" rx="19" ry="19" fill="hsl(170, 60%, 80%)" stroke="black" stroke-width="2"></ellipse><text x="0" y="0" fill="black" font-family="Arial, Helvetica, sans-serif" font-size="18px" font-weight="normal" font-style="normal" dominant-baseline="middle" text-anchor="middle" transform="translate(20 25)">5</text></g></g><g transform="rotate(30 210 25) translate(210 0)"><g><line x1="0" y1="25" x2="708.1793068761733" y2="25" stroke="black" stroke-width="2"></line><polyline points="698.1793068761733,19.226497308103742 708.1793068761733,25 698.1793068761733,30.773502691896258" fill="none" stroke="black" stroke-width="2" stroke-linecap="square"></polyline></g><g transform="translate(657.1793068761733 0)"><line x1="0" y1="0" x2="0" y2="50" stroke="black" stroke-width="2"></line></g><g transform="translate(464.97422611928556 0)"><ellipse cx="20" cy="25" rx="19" ry="19" fill="hsl(147, 60%, 80%)" stroke="black" stroke-width="2"></ellipse><text x="0" y="0" fill="black" font-family="Arial, Helvetica, sans-serif" font-size="18px" font-weight="normal" font-style="normal" dominant-baseline="middle" text-anchor="middle" transform="translate(20 25)">3</text></g><g transform="translate(291.7691453623979 0)"><ellipse cx="20" cy="25" rx="19" ry="19" fill="hsl(94, 60%, 80%)" stroke="black" stroke-width="2"></ellipse><text x="0" y="0" fill="black" font-family="Arial, Helvetica, sans-serif" font-size="18px" font-weight="normal" font-style="normal" dominant-baseline="middle" text-anchor="middle" transform="translate(20 25)">l</text></g><g transform="translate(118.56406460551017 0)"><ellipse cx="20" cy="25" rx="19" ry="19" fill="hsl(32, 60%, 80%)" stroke="black" stroke-width="2"></ellipse><text x="0" y="0" fill="black" font-family="Arial, Helvetica, sans-serif" font-size="18px" font-weight="normal" font-style="normal" dominant-baseline="middle" text-anchor="middle" transform="translate(20 25)">g</text></g></g><g transform="rotate(30 90 25) translate(90 0)"><g><line x1="0" y1="25" x2="708.1793068761733" y2="25" stroke="black" stroke-width="2"></line><polyline points="698.1793068761733,19.226497308103742 708.1793068761733,25 698.1793068761733,30.773502691896258" fill="none" stroke="black" stroke-width="2" stroke-linecap="square"></polyline></g><g transform="translate(657.1793068761733 0)"><line x1="0" y1="0" x2="0" y2="50" stroke="black" stroke-width="2"></line></g><g transform="translate(464.97422611928556 0)"><ellipse cx="20" cy="25" rx="19" ry="19" fill="hsl(244, 60%, 80%)" stroke="black" stroke-width="2"></ellipse><text x="0" y="0" fill="black" font-family="Arial, Helvetica, sans-serif" font-size="18px" font-weight="normal" font-style="normal" dominant-baseline="middle" text-anchor="middle" transform="translate(20 25)">x</text></g><g transform="translate(291.7691453623979 0)"><ellipse cx="20" cy="25" rx="19" ry="19" fill="hsl(117, 60%, 80%)" stroke="black" stroke-width="2"></ellipse><text x="0" y="0" fill="black" font-family="Arial, Helvetica, sans-serif" font-size="18px" font-weight="normal" font-style="normal" dominant-baseline="middle" text-anchor="middle" transform="translate(20 25)">4</text></g><g transform="translate(118.56406460551017 0)"><ellipse cx="20" cy="25" rx="19" ry="19" fill="hsl(206, 60%, 80%)" stroke="black" stroke-width="2"></ellipse><text x="0" y="0" fill="black" font-family="Arial, Helvetica, sans-serif" font-size="18px" font-weight="normal" font-style="normal" dominant-baseline="middle" text-anchor="middle" transform="translate(20 25)">2</text></g></g></g></g></svg>