<svg xmlns="http://www.w3.org/2000/svg" viewBox="0 0 1450 310" width="1450" height="310"><rect x="0" y="0" width="1450" height="310" fill="white"></rect><g transform="translate(25 25)"><g><g><line x1="0" y1="25" x2="1250" y2="25" stroke="black" stroke-width="2"></line><polyline points="1240,19.226497308103742 1250,25 1240,30.773502691896258" fill="none" stroke="black" stroke-width="2" stroke-linecap="square"></polyline></g><g transform="translate(1199 0)"><line x1="0" y1="0" x2="0" y2="50" stroke="black" stroke-width="2"></line></g><g transform="translate(1060 0)"><ellipse cx="20" cy="25" rx="19" ry="19" fill="hsl(230, 60%, 80%)" stroke="black" stroke-width="2"></ellipse><text x="0" y="0" fill="black" font-family="Arial, Helvetica, sans-serif" font-size="18px" font-weight="normal" font-style="normal" dominant-baseline="middle" text-anchor="middle" transform="translate(20 25)">7</text></g><g transform="translate(910 0)"><ellipse cx="20" cy="25" rx="19" ry="19" fill="hsl(306, 60%, 80%)" stroke="black" stroke-width="2"></ellipse><text x="0" y="0" fill="black" font-family="Arial, Helvetica, sans-serif" font-size="18px" font-weight="normal" font-style="normal" dominant-baseline="middle" text-anchor="middle" transform="translate(20 25)">6</text></g><g transform="translate(760 0)"><ellipse cx="20" cy="25" rx="19" ry="19" fill="hsl(170, 60%, 80%)" stroke="black" stroke-width="2"></ellipse><text x="0" y="0" fill="black" font-family="Arial, Helvetica, sans-serif" font-size="18px" font-weight="normal" font-style="normal" dominant-baseline="middle" text-anchor="middle" transform="translate(20 25)">5</text></g><g transform="translate(610 0)"><ellipse cx="20" cy="25" rx="19" ry="19" fill="hsl(117, 60%, 80%)" stroke="black" stroke-width="2"></ellipse><text x="0" y="0" fill="black" font-family="Arial, Helvetica, sans-serif" font-size="18px" font-weight="normal" font-style="normal" dominant-baseline="middle" text-anchor="middle" transform="translate(20 25)">4</text></g><g transform="translate(460 0)"><ellipse cx="20" cy="25" rx="19" ry="19" fill="hsl(147, 60%, 80%)" stroke="black" stroke-width="2"></ellipse><text x="0" y="0" fill="black" font-family="Arial, Helvetica, sans-serif" font-size="18px" font-weight="normal" font-style="normal" dominant-baseline="middle" text-anchor="middle" transform="translate(20 25)">3</text></g><g transform="translate(310 0)"><ellipse cx="20" cy="25" rx="19" ry="19" fill="hsl(206, 60%, 80%)" stroke="black" stroke-width="2"></ellipse><text x="0" y="0" fill="black" font-family="Arial, Helvetica, sans-serif" font-size="18px" font-weight="normal" font-style="normal" dominant-baseline="middle" text-anchor="middle" transform="translate(20 25)">2</text></g><g transform="translate(160 0)"><ellipse cx="20" cy="25" rx="19" ry="19" fill="hsl(35, 60%, 80%)" stroke="black" stroke-width="2"></ellipse><text x="0" y="0" fill="black" font-family="Arial, Helvetica, sans-serif" font-size="18px" font-weight="normal" font-style="normal" dominant-baseline="middle" text-anchor="middle" transform="translate(20 25)">1</text></g></g><g transform="translate(0 70)"><rect x="0" y="10" width="1400" height="48" fill="white" stroke="black" stroke-width="2" rx="0"></rect><text x="700" y="35" fill="black" font-family="Arial, Helvetica, sans-serif" font-size="24px" font-weight="normal" font-style="normal" dominant-baseline="middle" text-anchor="middle" width="1400">WithPrevious</text></g><g transform="translate(0 160)"><g><line x1="0" y1="25" x2="1400" y2="25" stroke="black" stroke-width="2"></line><polyline points="1390,19.226497308103742 1400,25 1390,30.773502691896258" fill="none" stroke="black" stroke-width="2" stroke-linecap="square"></polyline></g><g transform="translate(1349 0)"><line x1="0" y1="0" x2="0" y2="50" stroke="black" stroke-width="2"></line></g><g transform="translate(1060 0) translate(0 50)"><ellipse cx="20" cy="25" rx="19" ry="19" fill="hsl(230, 60%, 80%)" stroke="black" stroke-width="2"></ellipse><text x="0" y="0" fill="black" font-family="Arial, Helvetica, sans-serif" font-size="18px" font-weight="normal" font-style="normal" dominant-baseline="middle" text-anchor="middle" transform="translate(20 25)">7</text></g><g transform="translate(1060 0)"><ellipse cx="20" cy="25" rx="19" ry="19" fill="hsl(306, 60%, 80%)" stroke="black" stroke-width="2"></ellipse><text x="0" y="0" fill="black" font-family="Arial, Helvetica, sans-serif" font-size="18px" font-weight="normal" font-style="normal" dominant-baseline="middle" text-anchor="middle" transform="translate(20 25)">6</text></g><g transform="translate(910 0) translate(0 50)"><ellipse cx="20" cy="25" rx="19" ry="19" fill="hsl(306, 60%, 80%)" stroke="black" stroke-width="2"></ellipse><text x="0" y="0" fill="black" font-family="Arial, Helvetica, sans-serif" font-size="18px" font-weight="normal" font-style="normal" dominant-baseline="middle" text-anchor="middle" transform="translate(20 25)">6</text></g><g transform="translate(910 0)"><ellipse cx="20" cy="25" rx="19" ry="19" fill="hsl(170, 60%, 80%)" stroke="black" stroke-width="2"></ellipse><text x="0" y="0" fill="black" font-family="Arial, Helvetica, sans-serif" font-size="18px" font-weight="normal" font-style="normal" dominant-baseline="middle" text-anchor="middle" transform="translate(20 25)">5</text></g><g transform="translate(760 0) translate(0 50)"><ellipse cx="20" cy="25" rx="19" ry="19" fill="hsl(170, 60%, 80%)" stroke="black" stroke-width="2"></ellipse><text x="0" y="0" fill="black" font-family="Arial, Helvetica, sans-serif" font-size="18px" font-weight="normal" font-style="normal" dominant-baseline="middle" text-anchor="middle" transform="translate(20 25)">5</text></g><g transform="translate(760 0)"><ellipse cx="20" cy="25" rx="19" ry="19" fill="hsl(117, 60%, 80%)" stroke="black" stroke-width="2"></ellipse><text x="0" y="0" fill="black" font-family="Arial, Helvetica, sans-serif" font-size="18px" font-weight="normal" font-style="normal" dominant-baseline="middle" text-anchor="middle" transform="translate(20 25)">4</text></g><g transform="translate(610 0) translate(0 50)"><ellipse cx="20" cy="25" rx="19" ry="19" fill="hsl(117, 60%, 80%)" stroke="black" stroke-width="2"></ellipse><text x="0" y="0" fill="black" font-family="Arial, Helvetica, sans-serif" font-size="18px" font-weight="normal" font-style="normal" dominant-baseline="middle" text-anchor="middle" transform="translate(20 25)">4</text></g><g transform="translate(610 0)"><ellipse cx="20" cy="25" rx="19" ry="19" fill="hsl(147, 60%, 80%)" stroke="black" stroke-width="2"></ellipse><text x="0" y="0" fill="black" font-family="Arial, Helvetica, sans-serif" font-size="18px" font-weight="normal" font-style="normal" dominant-baseline="middle" text-anchor="middle" transform="translate(20 25)">3</text></g><g transform="translate(460 0) translate(0 50)"><ellipse cx="20" cy="25" rx="19" ry="19" fill="hsl(147, 60%, 80%)" stroke="black" stroke-width="2"></ellipse><text x="0" y="0" fill="black" font-family="Arial, Helvetica, sans-serif" font-size="18px" font-weight="normal" font-style="normal" dominant-baseline="middle" text-anchor="middle" transform="translate(20 25)">3</text></g><g transform="translate(460 0)"><ellipse cx="20" cy="25" rx="19" ry="19" fill="hsl(206, 60%, 80%)" stroke="black" stroke-width="2"></ellipse><text x="0" y="0" fill="black" font-family="Arial, Helvetica, sans-serif" font-size="18px" font-weight="normal" font-style="normal" dominant-baseline="middle" text-anchor="middle" transform="translate(20 25)">2</text></g><g transform="translate(310 0) translate(0 50)"><ellipse cx="20" cy="25" rx="19" ry="19" fill="hsl(206, 60%, 80%)" stroke="black" stroke-width="2"></ellipse><text x="0" y="0" fill="black" font-family="Arial, Helvetica, sans-serif" font-size="18px" font-weight="normal" font-style="normal" dominant-baseline="middle" text-anchor="middle" transform="translate(20 25)">2</text></g><g transform="translate(310 0)"><ellipse cx="20" cy="25" rx="19" ry="19" fill="hsl(35, 60%, 80%)" stroke="black" stroke-width="2"></ellipse><text x="0" y="0" fill="black" font-family="Arial, Helvetica, sans-serif" font-size="18px" font-weight="normal" font-style="normal" dominant-baseline="middle" text-anchor="middle" transform="translate(20 25)">1</text></g><g transform="translate(160 0) translate(0 50)"><ellipse cx="20" cy="25" rx="19" ry="19" fill="hsl(35, 60%, 80%)" stroke="black" stroke-width="2"></ellipse><text x="0" y="0" fill="black" font-family="Arial, Helvetica, sans-serif" font-size="18px" font-weight="normal" font-style="normal" dominant-baseline="middle" text-anchor="middle" transform="translate(20 25)">1</text></g><g transform="translate(160 0)"><ellipse cx="20" cy="25" rx="19" ry="19" fill="hsl(21, 60%, 80%)" stroke="black" stroke-width="2"></ellipse><text x="0" y="0" fill="black" font-family="Arial, Helvetica, sans-serif" font-size="18px" font-weight="normal" font-style="normal" dominant-baseline="middle" text-anchor="middle" transform="translate(20 25)">Ø</text></g></g></g></svg>